%TF.GenerationSoftware,KiCad,Pcbnew,7.0.6*%
%TF.CreationDate,2023-09-04T11:25:06+01:00*%
%TF.ProjectId,working,776f726b-696e-4672-9e6b-696361645f70,rev?*%
%TF.SameCoordinates,Original*%
%TF.FileFunction,Legend,Top*%
%TF.FilePolarity,Positive*%
%FSLAX46Y46*%
G04 Gerber Fmt 4.6, Leading zero omitted, Abs format (unit mm)*
G04 Created by KiCad (PCBNEW 7.0.6) date 2023-09-04 11:25:06*
%MOMM*%
%LPD*%
G01*
G04 APERTURE LIST*
%ADD10C,0.150000*%
%ADD11C,0.120000*%
G04 APERTURE END LIST*
D10*
X-15761904Y11245180D02*
X-15761904Y12245180D01*
X-15761904Y11768990D02*
X-15190476Y11768990D01*
X-15190476Y11245180D02*
X-15190476Y12245180D01*
X-14761904Y12149942D02*
X-14714285Y12197561D01*
X-14714285Y12197561D02*
X-14619047Y12245180D01*
X-14619047Y12245180D02*
X-14380952Y12245180D01*
X-14380952Y12245180D02*
X-14285714Y12197561D01*
X-14285714Y12197561D02*
X-14238095Y12149942D01*
X-14238095Y12149942D02*
X-14190476Y12054704D01*
X-14190476Y12054704D02*
X-14190476Y11959466D01*
X-14190476Y11959466D02*
X-14238095Y11816609D01*
X-14238095Y11816609D02*
X-14809523Y11245180D01*
X-14809523Y11245180D02*
X-14190476Y11245180D01*
X-5166666Y6545180D02*
X-5499999Y7021371D01*
X-5738094Y6545180D02*
X-5738094Y7545180D01*
X-5738094Y7545180D02*
X-5357142Y7545180D01*
X-5357142Y7545180D02*
X-5261904Y7497561D01*
X-5261904Y7497561D02*
X-5214285Y7449942D01*
X-5214285Y7449942D02*
X-5166666Y7354704D01*
X-5166666Y7354704D02*
X-5166666Y7211847D01*
X-5166666Y7211847D02*
X-5214285Y7116609D01*
X-5214285Y7116609D02*
X-5261904Y7068990D01*
X-5261904Y7068990D02*
X-5357142Y7021371D01*
X-5357142Y7021371D02*
X-5738094Y7021371D01*
X-4214285Y6545180D02*
X-4785713Y6545180D01*
X-4499999Y6545180D02*
X-4499999Y7545180D01*
X-4499999Y7545180D02*
X-4595237Y7402323D01*
X-4595237Y7402323D02*
X-4690475Y7307085D01*
X-4690475Y7307085D02*
X-4785713Y7259466D01*
X-5166666Y4545180D02*
X-5499999Y5021371D01*
X-5738094Y4545180D02*
X-5738094Y5545180D01*
X-5738094Y5545180D02*
X-5357142Y5545180D01*
X-5357142Y5545180D02*
X-5261904Y5497561D01*
X-5261904Y5497561D02*
X-5214285Y5449942D01*
X-5214285Y5449942D02*
X-5166666Y5354704D01*
X-5166666Y5354704D02*
X-5166666Y5211847D01*
X-5166666Y5211847D02*
X-5214285Y5116609D01*
X-5214285Y5116609D02*
X-5261904Y5068990D01*
X-5261904Y5068990D02*
X-5357142Y5021371D01*
X-5357142Y5021371D02*
X-5738094Y5021371D01*
X-4785713Y5449942D02*
X-4738094Y5497561D01*
X-4738094Y5497561D02*
X-4642856Y5545180D01*
X-4642856Y5545180D02*
X-4404761Y5545180D01*
X-4404761Y5545180D02*
X-4309523Y5497561D01*
X-4309523Y5497561D02*
X-4261904Y5449942D01*
X-4261904Y5449942D02*
X-4214285Y5354704D01*
X-4214285Y5354704D02*
X-4214285Y5259466D01*
X-4214285Y5259466D02*
X-4261904Y5116609D01*
X-4261904Y5116609D02*
X-4833332Y4545180D01*
X-4833332Y4545180D02*
X-4214285Y4545180D01*
X14238095Y11245180D02*
X14238095Y12245180D01*
X14238095Y11768990D02*
X14809523Y11768990D01*
X14809523Y11245180D02*
X14809523Y12245180D01*
X15714285Y11911847D02*
X15714285Y11245180D01*
X15476190Y12292800D02*
X15238095Y11578514D01*
X15238095Y11578514D02*
X15857142Y11578514D01*
X-9013333Y10705180D02*
X-9013333Y9990895D01*
X-9013333Y9990895D02*
X-9060952Y9848038D01*
X-9060952Y9848038D02*
X-9156190Y9752800D01*
X-9156190Y9752800D02*
X-9299047Y9705180D01*
X-9299047Y9705180D02*
X-9394285Y9705180D01*
X-8632380Y10705180D02*
X-8013333Y10705180D01*
X-8013333Y10705180D02*
X-8346666Y10324228D01*
X-8346666Y10324228D02*
X-8203809Y10324228D01*
X-8203809Y10324228D02*
X-8108571Y10276609D01*
X-8108571Y10276609D02*
X-8060952Y10228990D01*
X-8060952Y10228990D02*
X-8013333Y10133752D01*
X-8013333Y10133752D02*
X-8013333Y9895657D01*
X-8013333Y9895657D02*
X-8060952Y9800419D01*
X-8060952Y9800419D02*
X-8108571Y9752800D01*
X-8108571Y9752800D02*
X-8203809Y9705180D01*
X-8203809Y9705180D02*
X-8489523Y9705180D01*
X-8489523Y9705180D02*
X-8584761Y9752800D01*
X-8584761Y9752800D02*
X-8632380Y9800419D01*
X-11353333Y545180D02*
X-11353333Y-169104D01*
X-11353333Y-169104D02*
X-11400952Y-311961D01*
X-11400952Y-311961D02*
X-11496190Y-407200D01*
X-11496190Y-407200D02*
X-11639047Y-454819D01*
X-11639047Y-454819D02*
X-11734285Y-454819D01*
X-10924761Y449942D02*
X-10877142Y497561D01*
X-10877142Y497561D02*
X-10781904Y545180D01*
X-10781904Y545180D02*
X-10543809Y545180D01*
X-10543809Y545180D02*
X-10448571Y497561D01*
X-10448571Y497561D02*
X-10400952Y449942D01*
X-10400952Y449942D02*
X-10353333Y354704D01*
X-10353333Y354704D02*
X-10353333Y259466D01*
X-10353333Y259466D02*
X-10400952Y116609D01*
X-10400952Y116609D02*
X-10972380Y-454819D01*
X-10972380Y-454819D02*
X-10353333Y-454819D01*
X8346666Y-9614819D02*
X8346666Y-10329104D01*
X8346666Y-10329104D02*
X8299047Y-10471961D01*
X8299047Y-10471961D02*
X8203809Y-10567200D01*
X8203809Y-10567200D02*
X8060952Y-10614819D01*
X8060952Y-10614819D02*
X7965714Y-10614819D01*
X9251428Y-9948152D02*
X9251428Y-10614819D01*
X9013333Y-9567200D02*
X8775238Y-10281485D01*
X8775238Y-10281485D02*
X9394285Y-10281485D01*
X10686666Y545180D02*
X10686666Y-169104D01*
X10686666Y-169104D02*
X10639047Y-311961D01*
X10639047Y-311961D02*
X10543809Y-407200D01*
X10543809Y-407200D02*
X10400952Y-454819D01*
X10400952Y-454819D02*
X10305714Y-454819D01*
X11686666Y-454819D02*
X11115238Y-454819D01*
X11400952Y-454819D02*
X11400952Y545180D01*
X11400952Y545180D02*
X11305714Y402323D01*
X11305714Y402323D02*
X11210476Y307085D01*
X11210476Y307085D02*
X11115238Y259466D01*
X9238095Y-7454819D02*
X9238095Y-6454819D01*
X9238095Y-6931009D02*
X9809523Y-6931009D01*
X9809523Y-7454819D02*
X9809523Y-6454819D01*
X10190476Y-6454819D02*
X10809523Y-6454819D01*
X10809523Y-6454819D02*
X10476190Y-6835771D01*
X10476190Y-6835771D02*
X10619047Y-6835771D01*
X10619047Y-6835771D02*
X10714285Y-6883390D01*
X10714285Y-6883390D02*
X10761904Y-6931009D01*
X10761904Y-6931009D02*
X10809523Y-7026247D01*
X10809523Y-7026247D02*
X10809523Y-7264342D01*
X10809523Y-7264342D02*
X10761904Y-7359580D01*
X10761904Y-7359580D02*
X10714285Y-7407200D01*
X10714285Y-7407200D02*
X10619047Y-7454819D01*
X10619047Y-7454819D02*
X10333333Y-7454819D01*
X10333333Y-7454819D02*
X10238095Y-7407200D01*
X10238095Y-7407200D02*
X10190476Y-7359580D01*
X-12761904Y-5454819D02*
X-12761904Y-4454819D01*
X-12761904Y-4931009D02*
X-12190476Y-4931009D01*
X-12190476Y-5454819D02*
X-12190476Y-4454819D01*
X-11190476Y-5454819D02*
X-11761904Y-5454819D01*
X-11476190Y-5454819D02*
X-11476190Y-4454819D01*
X-11476190Y-4454819D02*
X-11571428Y-4597676D01*
X-11571428Y-4597676D02*
X-11666666Y-4692914D01*
X-11666666Y-4692914D02*
X-11761904Y-4740533D01*
X-4761904Y3995180D02*
X-4761904Y3185657D01*
X-4761904Y3185657D02*
X-4714285Y3090419D01*
X-4714285Y3090419D02*
X-4666666Y3042800D01*
X-4666666Y3042800D02*
X-4571428Y2995180D01*
X-4571428Y2995180D02*
X-4380952Y2995180D01*
X-4380952Y2995180D02*
X-4285714Y3042800D01*
X-4285714Y3042800D02*
X-4238095Y3090419D01*
X-4238095Y3090419D02*
X-4190476Y3185657D01*
X-4190476Y3185657D02*
X-4190476Y3995180D01*
X-3190476Y2995180D02*
X-3761904Y2995180D01*
X-3476190Y2995180D02*
X-3476190Y3995180D01*
X-3476190Y3995180D02*
X-3571428Y3852323D01*
X-3571428Y3852323D02*
X-3666666Y3757085D01*
X-3666666Y3757085D02*
X-3761904Y3709466D01*
D11*
%TO.C,R1*%
X-2237258Y6477500D02*
X-1762742Y6477500D01*
X-2237258Y7522500D02*
X-1762742Y7522500D01*
%TO.C,R2*%
X-2237258Y4477500D02*
X-1762742Y4477500D01*
X-2237258Y5522500D02*
X-1762742Y5522500D01*
%TO.C,J3*%
X-7680000Y8830000D02*
X-7680000Y10160000D01*
X-6350000Y8830000D02*
X-7680000Y8830000D01*
X-5080000Y8830000D02*
X7680000Y8830000D01*
X-5080000Y8830000D02*
X-5080000Y11490000D01*
X7680000Y8830000D02*
X7680000Y11490000D01*
X-5080000Y11490000D02*
X7680000Y11490000D01*
%TO.C,J2*%
X-13215000Y3110000D02*
X-13215000Y2060000D01*
X-15715000Y3110000D02*
X-13215000Y3110000D01*
X-13215000Y2060000D02*
X-12225000Y2060000D01*
X-17685000Y1940000D02*
X-17685000Y-1940000D01*
X-13215000Y-3110000D02*
X-13215000Y-2060000D01*
X-15715000Y-3110000D02*
X-13215000Y-3110000D01*
%TO.C,J4*%
X7680000Y-8830000D02*
X7680000Y-10160000D01*
X6350000Y-8830000D02*
X7680000Y-8830000D01*
X5080000Y-8830000D02*
X-7680000Y-8830000D01*
X5080000Y-8830000D02*
X5080000Y-11490000D01*
X-7680000Y-8830000D02*
X-7680000Y-11490000D01*
X5080000Y-11490000D02*
X-7680000Y-11490000D01*
%TO.C,J1*%
X13215000Y-3110000D02*
X13215000Y-2060000D01*
X15715000Y-3110000D02*
X13215000Y-3110000D01*
X13215000Y-2060000D02*
X12225000Y-2060000D01*
X17685000Y-1940000D02*
X17685000Y1940000D01*
X13215000Y3110000D02*
X13215000Y2060000D01*
X15715000Y3110000D02*
X13215000Y3110000D01*
%TO.C,U1*%
X-7860000Y2610000D02*
X-7860000Y2370000D01*
X-7860000Y2370000D02*
X-9675000Y2370000D01*
X-7860000Y-6610000D02*
X-7860000Y-6370000D01*
X-4000000Y2610000D02*
X-7860000Y2610000D01*
X-4000000Y2610000D02*
X-140000Y2610000D01*
X-4000000Y-6610000D02*
X-7860000Y-6610000D01*
X-4000000Y-6610000D02*
X-140000Y-6610000D01*
X-140000Y2610000D02*
X-140000Y2370000D01*
X-140000Y-6610000D02*
X-140000Y-6370000D01*
%TD*%
M02*
